<?xml version="1.0" encoding="UTF-8" standalone="no"?>
<svg width="40px" height="40px" viewBox="0 0 40 40" version="1.1" xmlns="http://www.w3.org/2000/svg" xmlns:xlink="http://www.w3.org/1999/xlink" xmlns:sketch="http://www.bohemiancoding.com/sketch/ns">
    <!-- Generator: Sketch 3.3.3 (12072) - http://www.bohemiancoding.com/sketch -->
    <title>googleplus</title>
    <desc>Created with Sketch.</desc>
    <defs></defs>
    <g id="__icons" stroke="none" stroke-width="1" fill-rule="evenodd" sketch:type="MSPage">
        <g id="googleplus" sketch:type="MSArtboardGroup">
            <path d="M23.004717,10 L16.5141509,10 C13.2216981,10 10.4716981,12.4192926 10.4716981,15.0932476 C10.4716981,17.8237942 12.2783019,19.9931404 15.3773585,19.9931404 C15.5943396,19.9931404 15.8018868,19.9789925 16.004717,19.9648446 C15.8018868,20.3515541 15.6603774,20.7759914 15.6603774,21.2287245 C15.6603774,21.9879957 16.0754717,22.417149 16.5943396,22.9170418 C16.2028302,22.9170418 15.8301887,22.9264737 15.4150943,22.9264737 C11.6415094,22.9264737 9,25.5249732 9,28.0150054 C9,30.4673098 12.1839623,32 15.9575472,32 C20.259434,32 22.9009434,29.5618435 22.9009434,27.1048232 C22.9009434,25.1382637 22.4764151,24.14791 20.3820755,22.577492 C19.7783019,22.1247588 18.4716981,21.2004287 18.4716981,20.5779207 C18.4716981,19.8516613 18.6792453,19.4932476 19.7735849,18.6349411 C20.8962264,17.7577706 21.6886792,16.607074 21.6886792,15.1687031 C21.6886792,13.6030011 21.0518868,12.1646302 19.8443396,11.5043944 L21.5471698,11.5043944 L23.004717,10 L23.004717,10 Z M20.8066038,26.6851018 C20.8584906,26.9114684 20.8915094,27.1425509 20.8915094,27.3830654 C20.8915094,29.3684887 19.6132075,30.9153269 15.9481132,30.9153269 C13.3396226,30.9153269 11.4575472,29.2647374 11.4575472,27.28403 C11.4575472,25.3410504 13.6650943,23.666881 16.2735849,23.6951768 C16.8820755,23.6998928 17.4481132,23.7989282 17.9622642,23.9639871 C19.3773585,24.9496249 20.5188679,25.562701 20.8066038,26.6851018 L20.8066038,26.6851018 Z M16.6320755,18.9933548 C14.8820755,18.9414791 13.2169811,17.3333333 12.9150943,15.0366559 C12.6132075,12.7399786 13.7877358,10.9809218 15.5377358,11.0327974 C17.2877358,11.0846731 18.7830189,12.9710611 19.0849057,15.2677385 C19.3867925,17.5644159 18.3820755,19.0452304 16.6320755,18.9933548 Z M28.0283019,13.2540193 L28.0283019,10.2829582 L26.5188679,10.2829582 L26.5188679,13.2540193 L23.5471698,13.2540193 L23.5471698,14.7631297 L26.5188679,14.7631297 L26.5188679,17.7813505 L28.0283019,17.7813505 L28.0283019,14.7631297 L31,14.7631297 L31,13.2540193 L28.0283019,13.2540193 Z" id="Shape" sketch:type="MSShapeGroup"></path>
        </g>
    </g>
</svg>
