<?xml version="1.0" encoding="UTF-8" standalone="no"?>
<svg width="40px" height="40px" viewBox="0 0 40 40" version="1.1" xmlns="http://www.w3.org/2000/svg" xmlns:xlink="http://www.w3.org/1999/xlink" xmlns:sketch="http://www.bohemiancoding.com/sketch/ns">
    <!-- Generator: Sketch 3.3.3 (12072) - http://www.bohemiancoding.com/sketch -->
    <title>instagram</title>
    <desc>Created with Sketch.</desc>
    <defs></defs>
    <g id="__icons" stroke="none" stroke-width="1" fill-rule="evenodd" sketch:type="MSPage">
        <g id="instagram" sketch:type="MSArtboardGroup">
            <path d="M24.9078081,12 L15.0921919,12 C13.3875823,12 12,13.3866416 12,15.0921919 L12,24.9078081 C12,26.6133584 13.3875823,28 15.0921919,28 L24.9078081,28 C26.6124177,28 28,26.6133584 28,24.9078081 L28,15.0921919 C28,13.3866416 26.6124177,12 24.9078081,12 L24.9078081,12 Z M25.79492,13.8447789 L26.1486359,13.8428975 L26.1486359,16.5550329 L23.4449671,16.5634995 L23.4355597,13.8513641 L25.79492,13.8447789 L25.79492,13.8447789 Z M17.7168391,18.3574788 C18.2285983,17.6481656 19.060207,17.1834431 20,17.1834431 C20.939793,17.1834431 21.7714017,17.6481656 22.2831609,18.3574788 C22.6171214,18.8203198 22.8165569,19.3866416 22.8165569,20 C22.8165569,21.5522107 21.5531515,22.8156162 20,22.8156162 C18.4477893,22.8156162 17.1843838,21.5522107 17.1843838,20 C17.1843838,19.3866416 17.3838194,18.8203198 17.7168391,18.3574788 L17.7168391,18.3574788 Z M26.4412041,24.9078081 C26.4412041,25.7535278 25.7535278,26.4412041 24.9078081,26.4412041 L15.0921919,26.4412041 C14.2464722,26.4412041 13.5587959,25.7535278 13.5587959,24.9078081 L13.5587959,18.3574788 L15.9482596,18.3574788 C15.7412982,18.8654751 15.625588,19.4195673 15.625588,20 C15.625588,22.4120414 17.5879586,24.3753528 20,24.3753528 C22.4129821,24.3753528 24.3753528,22.4120414 24.3753528,20 C24.3753528,19.4195673 24.2577611,18.8654751 24.0526811,18.3574788 L26.4412041,18.3574788 L26.4412041,24.9078081 L26.4412041,24.9078081 Z" id="Shape" sketch:type="MSShapeGroup"></path>
        </g>
    </g>
</svg>
