<?xml version="1.0" encoding="UTF-8" standalone="no"?>
<svg width="40px" height="40px" viewBox="0 0 40 40" version="1.1" xmlns="http://www.w3.org/2000/svg" xmlns:xlink="http://www.w3.org/1999/xlink" xmlns:sketch="http://www.bohemiancoding.com/sketch/ns">
    <!-- Generator: Sketch 3.3.3 (12072) - http://www.bohemiancoding.com/sketch -->
    <title>linkedin</title>
    <desc>Created with Sketch.</desc>
    <defs></defs>
    <g id="__icons" stroke="none" stroke-width="1" fill-rule="evenodd" sketch:type="MSPage">
        <g id="linkedin" sketch:type="MSArtboardGroup">
            <path d="M9.28320103,16.1538289 L13.9984982,16.1538289 L13.9984982,31 L9.28320103,31 L9.28320103,16.1538289 Z M11.6384896,14.1282282 L11.6054495,14.1282282 C10.0242437,14.1282282 9,12.9869751 9,11.5641141 C9,10.1066697 10.0572838,9 11.6668097,9 C13.2810556,9 14.2722592,10.1116102 14.3052993,11.5641141 C14.3052993,12.9869751 13.2857756,14.1282282 11.6384896,14.1282282 Z M31,31 L26.2847029,31 L26.2847029,23.0556928 C26.2847029,21.059735 25.6050204,19.6961599 23.8963742,19.6961599 C22.5936494,19.6961599 21.8195666,20.6200314 21.4750054,21.5043791 C21.3522849,21.8205704 21.3192448,22.260274 21.3192448,22.704918 L21.3192448,30.9950595 L16.6039477,30.9950595 C16.6039477,30.9950595 16.6653079,17.5421064 16.6039477,16.1488884 L21.3192448,16.1488884 L21.3192448,18.2535369 C21.9470071,17.2407366 23.0656511,15.8030541 25.5672602,15.8030541 C28.6683115,15.8030541 30.99528,17.9225241 30.99528,22.482596 L30.99528,31 L31,31 Z" sketch:type="MSShapeGroup"></path>
        </g>
    </g>
</svg>
