<?xml version="1.0" encoding="UTF-8" standalone="no"?>
<svg width="40px" height="40px" viewBox="0 0 40 40" version="1.1" xmlns="http://www.w3.org/2000/svg" xmlns:xlink="http://www.w3.org/1999/xlink" xmlns:sketch="http://www.bohemiancoding.com/sketch/ns">
    <!-- Generator: Sketch 3.3.3 (12072) - http://www.bohemiancoding.com/sketch -->
    <title>rss</title>
    <desc>Created with Sketch.</desc>
    <defs></defs>
    <g id="__icons" stroke="none" stroke-width="1" fill-rule="evenodd" sketch:type="MSPage">
        <g id="rss" sketch:type="MSArtboardGroup">
            <path d="M10.0145371,27.4338665 C10.0145371,28.8278751 11.1484315,29.956588 12.5439939,29.956588 C13.9444019,29.956588 15.0782964,28.8278751 15.0782964,27.4338665 C15.0782964,26.0398578 13.9444019,24.9159685 12.5439939,24.9159685 C11.1435858,24.9159685 10.0145371,26.0446814 10.0145371,27.4338665 Z M10,21.0860625 C12.3743943,21.0860625 14.6082632,21.9977152 16.2848763,23.6763138 C17.9614894,25.3549124 18.89671,27.5882204 18.89671,29.9517644 L22.5503698,29.9517644 C22.5503698,23.0540746 16.9342005,17.4490988 10.0048457,17.4490988 L10.0048457,21.0860625 L10,21.0860625 Z M25.3463402,30 L29,30 C29,19.5087586 20.5151747,11 10.048457,11 L10.048457,14.6369637 C18.4799796,14.6369637 25.3463402,21.5298299 25.3463402,30 Z" sketch:type="MSShapeGroup"></path>
        </g>
    </g>
</svg>
