<?xml version="1.0" encoding="UTF-8" standalone="no"?>
<svg width="40px" height="40px" viewBox="0 0 40 40" version="1.1" xmlns="http://www.w3.org/2000/svg" xmlns:xlink="http://www.w3.org/1999/xlink" xmlns:sketch="http://www.bohemiancoding.com/sketch/ns">
    <!-- Generator: Sketch 3.3.3 (12072) - http://www.bohemiancoding.com/sketch -->
    <title>share</title>
    <desc>Created with Sketch.</desc>
    <defs></defs>
    <g id="__icons" stroke="none" stroke-width="1" fill-rule="evenodd" sketch:type="MSPage">
        <g id="share" sketch:type="MSArtboardGroup">
            <path d="M25.1666667,23.3333333 C24.2014124,23.3333333 23.3466102,23.8183616 22.8375706,24.5579096 L16.5610169,21.2347458 C16.6234463,20.999435 16.6714689,20.7545198 16.6714689,20.5 C16.6714689,20.2454802 16.6282486,20.000565 16.5610169,19.7652542 L22.8375706,16.4420904 C23.3514124,17.1816384 24.2014124,17.6666667 25.1666667,17.6666667 C26.7322034,17.6666667 28,16.3988701 28,14.8333333 C28,13.2677966 26.7322034,12 25.1666667,12 C23.6011299,12 22.3333333,13.2677966 22.3333333,14.8333333 C22.3333333,14.8621469 22.3429379,14.8861582 22.3429379,14.9101695 L15.7350282,18.4110169 C15.230791,17.9548023 14.5680791,17.6666667 13.8333333,17.6666667 C12.2677966,17.6666667 11,18.9344633 11,20.5 C11,22.0655367 12.2677966,23.3333333 13.8333333,23.3333333 C14.5680791,23.3333333 15.230791,23.0451977 15.7350282,22.5889831 L22.3429379,26.0898305 C22.3429379,26.1186441 22.3333333,26.1426554 22.3333333,26.1666667 C22.3333333,27.7322034 23.6011299,29 25.1666667,29 C26.7322034,29 28,27.7322034 28,26.1666667 C28,24.6011299 26.7322034,23.3333333 25.1666667,23.3333333 L25.1666667,23.3333333 Z" id="Shape" sketch:type="MSShapeGroup"></path>
        </g>
    </g>
</svg>
