<?xml version="1.0" encoding="UTF-8" standalone="no"?>
<svg width="40px" height="40px" viewBox="0 0 40 40" version="1.1" xmlns="http://www.w3.org/2000/svg" xmlns:xlink="http://www.w3.org/1999/xlink" xmlns:sketch="http://www.bohemiancoding.com/sketch/ns">
    <!-- Generator: Sketch 3.3.3 (12072) - http://www.bohemiancoding.com/sketch -->
    <title>twitter</title>
    <desc>Created with Sketch.</desc>
    <defs></defs>
    <g id="__icons" stroke="none" stroke-width="1" fill-rule="evenodd" sketch:type="MSPage">
        <g id="twitter" sketch:type="MSArtboardGroup">
            <path d="M28.7465784,15.4841076 C28.7562914,15.6797066 28.7611479,15.8753056 28.7611479,16.0709046 C28.7611479,22.0757946 24.2203091,29 15.9205298,29 C13.3708609,29 11.000883,28.2469438 9,26.9608802 C9.35452539,27 9.71390728,27.0244499 10.0781457,27.0244499 C12.195585,27.0244499 14.1381898,26.3007335 15.6825607,25.0782396 C13.7108168,25.0391198 12.0401766,23.7286064 11.4671082,21.9242054 C11.7439294,21.9779951 12.0256071,22.007335 12.3169978,22.007335 C12.7298013,22.007335 13.1280353,21.9486553 13.5068433,21.8459658 C11.4428256,21.4254279 9.88874172,19.591687 9.88874172,17.391198 L9.88874172,17.3325183 C10.4958057,17.6748166 11.1951435,17.8753056 11.9333333,17.8997555 C10.7240618,17.0880196 9.92759382,15.6943765 9.92759382,14.1149144 C9.92759382,13.2836186 10.1509934,12.5012225 10.5395143,11.8312958 C13.4242826,15.4694377 17.0423841,17.6699267 19.8397351,16.5794621 C19.7620309,16.2469438 19.7231788,15.8997555 19.7231788,15.5427873 C19.7231788,13.0342298 21.7434879,11 24.2348786,11 C25.5315673,11 26.7068433,11.5525672 27.5275938,12.4327628 C28.5523179,12.2322738 29.5236203,11.8508557 30.392936,11.3276284 C30.0529801,12.3887531 29.3390728,13.2787286 28.4066225,13.8410758 C29.3196468,13.7334963 30.1889625,13.4889976 31,13.1271394 C30.392936,14.0415648 29.6304636,14.8435208 28.7465784,15.4841076 L28.7465784,15.4841076 Z" sketch:type="MSShapeGroup"></path>
        </g>
    </g>
</svg>
