<?xml version="1.0" encoding="UTF-8" standalone="no"?>
<svg width="40px" height="40px" viewBox="0 0 40 40" version="1.1" xmlns="http://www.w3.org/2000/svg" xmlns:xlink="http://www.w3.org/1999/xlink" xmlns:sketch="http://www.bohemiancoding.com/sketch/ns">
    <!-- Generator: Sketch 3.3.3 (12072) - http://www.bohemiancoding.com/sketch -->
    <title>user</title>
    <desc>Created with Sketch.</desc>
    <defs></defs>
    <g id="__icons" stroke="none" stroke-width="1" fill-rule="evenodd" sketch:type="MSPage">
        <g id="user" sketch:type="MSArtboardGroup">
            <path d="M22.9672727,25.1525246 C22.3757576,25.0609679 22.3612121,23.4418605 22.3612121,23.4418605 C22.3612121,23.4418605 24.1018182,21.7311963 24.48,19.4278232 C25.4981818,19.4278232 26.1284848,16.9798869 25.110303,16.1173266 C25.1539394,15.2113974 26.4193939,9 20,9 C13.5757576,9 14.8460606,15.2113974 14.889697,16.1173266 C13.8715152,16.9798869 14.5018182,19.4278232 15.52,19.4278232 C15.8981818,21.7311963 17.6387879,23.4418605 17.6387879,23.4418605 C17.6387879,23.4418605 17.6242424,25.0609679 17.0327273,25.1525246 C15.1272727,25.4561073 8,28.5786717 8,32 L32,32 C32,28.5786717 24.8775758,25.4561073 22.9672727,25.1525246 L22.9672727,25.1525246 L22.9672727,25.1525246 Z" sketch:type="MSShapeGroup"></path>
        </g>
    </g>
</svg>
