<?xml version="1.0" encoding="UTF-8" standalone="no"?>
<svg width="40px" height="40px" viewBox="0 0 40 40" version="1.1" xmlns="http://www.w3.org/2000/svg" xmlns:xlink="http://www.w3.org/1999/xlink" xmlns:sketch="http://www.bohemiancoding.com/sketch/ns">
    <!-- Generator: Sketch 3.3.3 (12072) - http://www.bohemiancoding.com/sketch -->
    <title>whatsapp</title>
    <desc>Created with Sketch.</desc>
    <defs></defs>
    <g id="__icons" stroke="none" stroke-width="1" fill-rule="evenodd" sketch:type="MSPage">
        <g id="whatsapp" sketch:type="MSArtboardGroup">
            <path d="M32,19.20587 C32,25.3922432 26.9478097,30.41174 20.7097045,30.41174 C18.7283588,30.41174 16.867533,29.9054507 15.2525676,29.018239 L9,31 L11.0391951,24.9872117 C10.0123664,23.2995807 9.41940893,21.3178197 9.41940893,19.2010482 C9.41940893,13.0146751 14.4715992,8 20.7097045,8 C26.9429889,8 32,13.0146751 32,19.20587 L32,19.20587 L32,19.20587 Z M20.7097045,9.78406709 C15.474324,9.78406709 11.2175645,14.0079665 11.2175645,19.20587 C11.2175645,21.2647799 11.8876546,23.1742138 13.0253616,24.7316562 L11.8394467,28.2274633 L15.4887864,27.0702306 C16.9880528,28.0538784 18.7813875,28.627673 20.7097045,28.627673 C25.9402641,28.627673 30.2018445,24.4037736 30.2018445,19.20587 C30.2018445,14.0079665 25.9402641,9.78406709 20.7097045,9.78406709 L20.7097045,9.78406709 L20.7097045,9.78406709 Z M26.4078809,21.7855346 C26.3355691,21.6698113 26.152379,21.6023061 25.8775938,21.4624738 C25.6028086,21.3274633 24.2385244,20.6620545 23.9878432,20.5704403 C23.7323412,20.478826 23.5491511,20.4354298 23.365961,20.7054507 C23.1827709,20.9802935 22.6524838,21.5974843 22.4885768,21.7807128 C22.3294907,21.9639413 22.1655837,21.9880503 21.8907986,21.848218 C21.6111926,21.7132075 20.719346,21.4190776 19.6635925,20.4836478 C18.8392371,19.7555556 18.2848459,18.8538784 18.1257598,18.5838574 C17.9666737,18.3090147 18.1112974,18.1595388 18.2462796,18.0245283 C18.3716202,17.8991614 18.5258856,17.7014675 18.6608677,17.542348 C18.8006707,17.3832285 18.8440578,17.2675052 18.9356529,17.0842767 C19.027248,16.9010482 18.9838608,16.7419287 18.9115489,16.6020964 C18.8440578,16.467086 18.2896667,15.1121593 18.0582687,14.5624738 C17.8268707,14.0127883 17.6002934,14.1044025 17.4363865,14.1044025 C17.2773004,14.1044025 17.0892895,14.0802935 16.9060994,14.0802935 C16.7229092,14.0802935 16.4240201,14.1477987 16.1685181,14.4226415 C15.9130161,14.6974843 15.1995389,15.3628931 15.1995389,16.7129979 C15.1995389,18.0631027 16.1926221,19.3698113 16.3276043,19.5530398 C16.4674073,19.7362683 18.2414588,22.6004193 21.0568015,23.6997904 C23.8721442,24.7991614 23.8721442,24.4327044 24.3783274,24.3844864 C24.8845106,24.3410901 26.0173968,23.7190776 26.243974,23.0777778 C26.4801928,22.4509434 26.4801928,21.9012579 26.4078809,21.7855346 L26.4078809,21.7855346 L26.4078809,21.7855346 Z" sketch:type="MSShapeGroup"></path>
        </g>
    </g>
</svg>
