<?xml version="1.0" encoding="UTF-8" standalone="no"?>
<svg width="40px" height="40px" viewBox="0 0 40 40" version="1.1" xmlns="http://www.w3.org/2000/svg" xmlns:xlink="http://www.w3.org/1999/xlink" xmlns:sketch="http://www.bohemiancoding.com/sketch/ns">
    <!-- Generator: Sketch 3.3.3 (12072) - http://www.bohemiancoding.com/sketch -->
    <title>worldif</title>
    <desc>Created with Sketch.</desc>
    <defs></defs>
    <g id="__icons" stroke="none" stroke-width="1" fill-rule="evenodd" sketch:type="MSPage">
        <g id="worldif" sketch:type="MSArtboardGroup">
            <path d="M8,9 L10.7987604,9 L10.7987604,32 L8,32 L8,9 L8,9 Z M11.413713,32 L11.413713,9 L14.2124734,9 L14.2124734,32 L11.413713,32 Z M17.2194461,9 L32.9951579,9 L32.9951579,11.3019183 L20.0182065,11.3019183 L20.0182065,32 L17.2194461,32 L17.2194461,9 Z M31.87178,21.1426188 L20.6380012,21.1426188 L20.6380012,11.9109675 L33,11.9109675 L33,14.1793161 L23.4319194,14.1793161 L23.4319194,18.8454962 L31.8669378,18.8454962 L31.8669378,21.1426188 L31.87178,21.1426188 Z M20.633159,32 L20.633159,21.7516681 L31.8669378,21.7516681 L31.8669378,24.0200167 L23.4319194,24.0200167 L23.4319194,32 L20.633159,32 L20.633159,32 Z" sketch:type="MSShapeGroup"></path>
        </g>
    </g>
</svg>
