<?xml version="1.0" encoding="UTF-8" standalone="no"?>
<svg width="40px" height="40px" viewBox="0 0 40 40" version="1.1" xmlns="http://www.w3.org/2000/svg" xmlns:xlink="http://www.w3.org/1999/xlink" xmlns:sketch="http://www.bohemiancoding.com/sketch/ns">
    <!-- Generator: Sketch 3.3.3 (12072) - http://www.bohemiancoding.com/sketch -->
    <title>youtube</title>
    <desc>Created with Sketch.</desc>
    <defs></defs>
    <g id="__icons" stroke="none" stroke-width="1" fill-rule="evenodd" sketch:type="MSPage">
        <g id="youtube" sketch:type="MSArtboardGroup">
            <path d="M15.0299639,24.4137467 L15.0435576,21.1727587 L15.6630427,21.1664076 L16.2818804,21.1587862 L16.2747599,20.6595864 L16.266992,20.1597515 L14.4790948,20.1527652 L12.6924922,20.145779 L12.6924922,20.6526001 L12.6924922,21.1587862 L13.2970889,21.1664076 L13.9016855,21.1727587 L13.9088061,24.3870719 C13.9120427,26.1545949 13.9211051,27.6166279 13.9282256,27.6350462 C13.9379354,27.6610859 14.0635155,27.6674371 14.4784475,27.661721 L15.0163702,27.6547348 L15.0299639,24.4137467 Z M25.3424154,24.1857407 C25.3171699,24.1209591 25.3521252,23.3721594 25.3857858,23.2635548 C25.4641115,23.0082389 25.6304727,22.8837565 25.8926372,22.8837565 C26.1107839,22.8837565 26.2493104,22.9663214 26.3425244,23.1517747 C26.4014305,23.2692709 26.4072564,23.3194449 26.4163189,23.753863 L26.4253814,24.2270232 L25.8913425,24.2270232 C25.4323928,24.2270232 25.3560091,24.2213071 25.3424154,24.1857407 L25.3424154,24.1857407 Z M26.3392878,27.6775989 C26.8623222,27.533428 27.224174,27.1828449 27.3607584,26.6880909 C27.3834146,26.6036207 27.4099547,26.3629124 27.4190172,26.1539598 L27.4345529,25.7741615 L26.9309381,25.7741615 L26.426676,25.7741615 L26.4143769,26.1145827 C26.4001359,26.5013673 26.3593547,26.6341062 26.2156497,26.7579534 C26.0628823,26.8894221 25.7819455,26.8989488 25.5994013,26.7782771 C25.3819019,26.6341062 25.3281743,26.3908574 25.3391788,25.6007753 L25.3469466,25.0406045 L26.3897788,25.0342534 L27.4326109,25.026632 L27.4190172,24.1933621 C27.4021869,23.2635548 27.3827673,23.1225595 27.2235266,22.7923001 C26.9199337,22.1667125 26.0790653,21.8510607 25.3806072,22.1006606 C24.8536889,22.2892896 24.5423281,22.6290757 24.4173954,23.1549503 C24.3733776,23.3404037 24.3681991,23.5068036 24.3681991,24.8672183 C24.3681991,26.5356635 24.374025,26.6036207 24.5475067,26.9453122 C24.8575728,27.5531165 25.6337093,27.8706736 26.3392878,27.6775989 L26.3392878,27.6775989 Z M22.2100349,26.727468 C22.2741196,26.6849153 22.3161954,26.6258497 22.3492087,26.5337581 C22.3912845,26.4124513 22.3951684,26.2581185 22.3893425,24.8272061 C22.3835166,23.3359579 22.38028,23.2483121 22.3310837,23.1505045 C22.2048564,22.9009046 21.8870224,22.8767703 21.5957285,23.0952496 L21.4999251,23.1663824 L21.4999251,24.8672183 L21.4999251,26.5680543 L21.5950811,26.6391871 C21.8106386,26.8005061 22.0469104,26.8341672 22.2100349,26.727468 L22.2100349,26.727468 Z M22.8411717,27.6877607 C22.9997651,27.6426676 23.1913717,27.4578494 23.2774653,27.2692204 C23.4431791,26.9078404 23.4438264,26.8989488 23.4438264,24.8672183 C23.4438264,23.1994083 23.4386479,22.9936313 23.3965721,22.8132588 C23.2599876,22.23594 22.9622205,21.9837996 22.461195,22.0206362 C22.1809055,22.0422301 21.9601695,22.1514698 21.6954157,22.4023399 C21.5801928,22.5109444 21.4772689,22.6004956 21.4656172,22.6004956 C21.4552601,22.6004956 21.4455503,22.0479462 21.4455503,21.3734548 L21.4455503,20.1464141 L20.9561765,20.1464141 L20.4668028,20.1464141 L20.4668028,23.9069256 L20.4668028,27.6680722 L20.9561765,27.6680722 L21.4455503,27.6680722 L21.4455503,27.4146616 C21.4455503,27.2463563 21.4559074,27.161251 21.4759743,27.161251 C21.4921573,27.161251 21.6022017,27.250167 21.7206612,27.3594066 C22.1012852,27.7106248 22.430771,27.8071622 22.8411717,27.6877607 L22.8411717,27.6877607 Z M17.6321894,27.6629913 C17.82768,27.5918585 18.0574785,27.4356204 18.2510272,27.2425456 C18.33971,27.1536296 18.4283928,27.0812266 18.4478124,27.0812266 C18.4737052,27.0812266 18.4827676,27.1536296 18.4827676,27.3746494 L18.4827676,27.6680722 L18.9721414,27.6680722 L19.4615151,27.6680722 L19.4615151,24.8805557 L19.4615151,22.0936744 L18.9721414,22.0936744 L18.4827676,22.0936744 L18.4827676,24.2435361 L18.4827676,26.394033 L18.2717414,26.5991749 C18.1047329,26.7623992 18.0348223,26.8119382 17.9312512,26.8398832 C17.7564748,26.8875168 17.6451358,26.8544908 17.5732833,26.733184 C17.5189085,26.6429978 17.5176138,26.6010802 17.509846,24.3673834 L17.5027255,22.0936744 L17.0133517,22.0936744 L16.5252726,22.0936744 L16.5252726,24.5077437 C16.5252726,27.1377518 16.5278619,27.1949121 16.6780401,27.4483226 C16.8424593,27.7252325 17.2269673,27.8122431 17.6321894,27.6629913 L17.6321894,27.6629913 Z M18.0477687,29.9887796 C17.4121007,29.9779827 16.6599151,29.9608346 16.3757417,29.9506728 C14.4680903,29.8833507 13.1585624,29.8115828 12.8970452,29.7595034 C12.524189,29.6858302 12.1073151,29.4381356 11.8652175,29.1466182 C11.4781203,28.6798092 11.2709779,28.1132873 11.1706434,27.2412754 C10.9382556,25.2139907 10.9434341,22.8494603 11.1848844,20.8933084 C11.2910449,20.0359042 11.554504,19.4166678 11.9966234,18.9847901 C12.2490781,18.7377307 12.4918231,18.600546 12.8148356,18.5192514 C13.5152356,18.3433247 18.9954449,18.2035996 22.3291418,18.2760026 C24.2549181,18.3179202 26.3354039,18.4055659 26.888215,18.467172 C27.6035034,18.5471964 28.1058235,18.9104818 28.4534342,19.5995807 C28.7162461,20.1197393 28.7997503,20.5249422 28.9065581,21.7735768 C28.9900623,22.7618146 29.0107766,23.3778754 28.9952409,24.5191757 C28.9777633,25.8846714 28.8890804,27.0875777 28.7563799,27.7627042 C28.6165588,28.4765726 28.2864257,29.0850121 27.8585474,29.4146364 C27.5290616,29.6693172 27.1775669,29.7830026 26.6241085,29.8134881 C26.4596893,29.8230148 26.2518997,29.8357171 26.1619222,29.8427034 C25.8434409,29.8668377 24.1358113,29.9341598 23.1991396,29.9601995 C21.807402,29.9983064 19.372185,30.0116438 18.0477687,29.9887796 Z M16.3303563,17.6006624 C16.3070528,17.5631907 16.3109367,15.3688709 16.3342402,15.0583001 C16.3646642,14.6600834 16.2960483,14.346337 16.0047544,13.5448228 C15.9102458,13.2850611 15.7393533,12.7807804 15.625425,12.4251164 C14.801387,9.85353876 14.8447574,10.0040608 14.9237304,10.0034257 C15.4668317,9.99897993 16.1368077,10.0021555 16.1445755,10.0097769 C16.1497541,10.0148578 16.3258251,10.6423507 16.536204,11.4051229 C16.7472302,12.16726 16.9226539,12.8017391 16.9271851,12.8157116 C16.931069,12.8284139 17.0547071,12.3844691 17.2016487,11.8287441 C17.5091256,10.6626743 17.68196,10.0193036 17.6884332,10.0135876 C17.7020269,10.0008853 17.8547944,9.99834481 18.3551726,10.0008853 L18.908631,10.0040608 L18.8963319,10.0910715 C18.8866221,10.1615692 18.5085874,11.4063931 18.113075,12.6709056 C18.0703519,12.8106307 17.9596602,13.1707405 17.8683881,13.4717847 C17.777116,13.7721937 17.6670716,14.1291279 17.6230539,14.2650424 L17.5434336,14.5127369 L17.5434336,16.0573348 C17.5434336,17.5060304 17.540197,17.6032029 17.4961792,17.6146349 C17.396492,17.6413097 16.3478339,17.6286074 16.3303563,17.6006624 Z M23.4832399,17.6933891 C23.2100709,17.6578227 23.0501829,17.5542991 22.9407859,17.3415358 C22.8035541,17.0747878 22.8035541,17.076058 22.8035541,14.4181049 L22.8035541,11.9379837 L23.3550706,11.9379837 L23.9059397,11.9379837 L23.9175915,14.224395 C23.9298905,16.7076918 23.9266539,16.6498964 24.0781268,16.6873681 C24.2173005,16.7210292 24.3713626,16.647991 24.5629693,16.4561865 L24.7468081,16.2726385 L24.7539286,14.1049936 L24.7604018,11.9379837 L25.3112709,11.9303624 L25.8621401,11.9240112 L25.8621401,14.7623368 L25.8621401,17.6012975 L25.787051,17.6165403 C25.6970735,17.6349586 24.862031,17.6336884 24.7947098,17.6146349 C24.7539286,17.603838 24.7474554,17.5670014 24.7474554,17.3447114 L24.7474554,17.086855 L24.590804,17.2367419 C24.2308942,17.5803388 23.8425024,17.7403875 23.4832399,17.6933891 L23.4832399,17.6933891 Z M20.7075327,16.6092491 C20.89655,16.4682537 20.8978447,16.4561865 20.9075545,14.8601444 C20.9159696,13.6197663 20.9114384,13.4089083 20.8732465,13.239968 C20.8214609,13.0113268 20.7308362,12.9033574 20.5534705,12.8557238 C20.3243193,12.7960231 20.1145877,12.9243162 20.0407933,13.1701054 C19.9851238,13.3593694 19.9857711,16.1729256 20.0420879,16.3621896 C20.084811,16.5044552 20.2213955,16.6600582 20.3223774,16.6816521 C20.4537833,16.708962 20.6149659,16.6784765 20.70818,16.6092491 L20.7075327,16.6092491 Z M20.2757704,17.6921189 C19.7825127,17.6336884 19.3293888,17.3491572 19.1112421,16.9604672 C18.8892114,16.5647911 18.8684972,16.3577438 18.8814436,14.6149903 C18.8918007,13.2653725 18.8956846,13.1809023 18.9500594,12.9871925 C19.0801707,12.5267347 19.3319781,12.2129882 19.7223119,12.023089 C20.2582927,11.7633273 20.8363493,11.7969884 21.341906,12.1183562 C21.6642713,12.3222279 21.8597619,12.6181911 21.9646277,13.0583253 C22.0105874,13.2526702 22.0151186,13.4019221 22.0151186,14.7648773 C22.0151186,16.4225255 22.0073508,16.5184277 21.8338691,16.8772673 C21.6675079,17.2234045 21.2907678,17.5282594 20.8978447,17.6355937 C20.724363,17.681957 20.4233593,17.7099021 20.2757704,17.6921189 L20.2757704,17.6921189 Z" sketch:type="MSShapeGroup"></path>
        </g>
    </g>
</svg>
